<svg id="visual" viewBox="0 0 900 600" width="900" height="600" xmlns="http://www.w3.org/2000/svg" xmlns:xlink="http://www.w3.org/1999/xlink" version="1.1"><path d="M0 73L56 79L113 43L169 79L225 115L281 109L338 49L394 109L450 97L506 109L563 85L619 61L675 55L731 103L788 109L844 61L900 91L900 0L844 0L788 0L731 0L675 0L619 0L563 0L506 0L450 0L394 0L338 0L281 0L225 0L169 0L113 0L56 0L0 0Z" fill="#97fdc2"></path><path d="M0 127L56 115L113 73L169 133L225 133L281 139L338 79L394 157L450 127L506 139L563 115L619 79L675 79L731 145L788 145L844 91L900 115L900 89L844 59L788 107L731 101L675 53L619 59L563 83L506 107L450 95L394 107L338 47L281 107L225 113L169 77L113 41L56 77L0 71Z" fill="#89f0b3"></path><path d="M0 265L56 217L113 169L169 235L225 259L281 259L338 217L394 265L450 211L506 235L563 229L619 187L675 169L731 283L788 319L844 187L900 223L900 113L844 89L788 143L731 143L675 77L619 77L563 113L506 137L450 125L394 155L338 77L281 137L225 131L169 131L113 71L56 113L0 125Z" fill="#7be4a5"></path><path d="M0 361L56 325L113 361L169 373L225 403L281 355L338 349L394 361L450 331L506 385L563 385L619 391L675 373L731 349L788 385L844 331L900 337L900 221L844 185L788 317L731 281L675 167L619 185L563 227L506 233L450 209L394 263L338 215L281 257L225 257L169 233L113 167L56 215L0 263Z" fill="#6cd796"></path><path d="M0 427L56 391L113 439L169 397L225 451L281 397L338 379L394 397L450 379L506 427L563 421L619 427L675 457L731 409L788 433L844 391L900 409L900 335L844 329L788 383L731 347L675 371L619 389L563 383L506 383L450 329L394 359L338 347L281 353L225 401L169 371L113 359L56 323L0 359Z" fill="#5ecb88"></path><path d="M0 469L56 451L113 499L169 439L225 493L281 451L338 433L394 427L450 415L506 487L563 475L619 451L675 481L731 451L788 475L844 445L900 451L900 407L844 389L788 431L731 407L675 455L619 425L563 419L506 425L450 377L394 395L338 377L281 395L225 449L169 395L113 437L56 389L0 425Z" fill="#4fbf7a"></path><path d="M0 499L56 511L113 529L169 481L225 535L281 475L338 499L394 475L450 481L506 511L563 493L619 493L675 517L731 493L788 517L844 505L900 499L900 449L844 443L788 473L731 449L675 479L619 449L563 473L506 485L450 413L394 425L338 431L281 449L225 491L169 437L113 497L56 449L0 467Z" fill="#40b36c"></path><path d="M0 571L56 565L113 577L169 577L225 571L281 571L338 577L394 571L450 553L506 565L563 559L619 565L675 583L731 571L788 559L844 577L900 577L900 497L844 503L788 515L731 491L675 515L619 491L563 491L506 509L450 479L394 473L338 497L281 473L225 533L169 479L113 527L56 509L0 497Z" fill="#2fa75e"></path><path d="M0 601L56 601L113 601L169 601L225 601L281 601L338 601L394 601L450 601L506 601L563 601L619 601L675 601L731 601L788 601L844 601L900 601L900 575L844 575L788 557L731 569L675 581L619 563L563 557L506 563L450 551L394 569L338 575L281 569L225 569L169 575L113 575L56 563L0 569Z" fill="#1b9b50"></path></svg>