<svg id="visual" viewBox="0 0 960 540" width="960" height="540" xmlns="http://www.w3.org/2000/svg" xmlns:xlink="http://www.w3.org/1999/xlink" version="1.1"><rect x="0" y="0" width="960" height="540" fill="#6edd93"></rect><defs><linearGradient id="grad1_0" x1="43.8%" y1="0%" x2="100%" y2="100%"><stop offset="14.444444444444446%" stop-color="#1a9443" stop-opacity="1"></stop><stop offset="85.55555555555554%" stop-color="#1a9443" stop-opacity="1"></stop></linearGradient></defs><defs><linearGradient id="grad1_1" x1="43.8%" y1="0%" x2="100%" y2="100%"><stop offset="14.444444444444446%" stop-color="#1a9443" stop-opacity="1"></stop><stop offset="85.55555555555554%" stop-color="#33a657" stop-opacity="1"></stop></linearGradient></defs><defs><linearGradient id="grad1_2" x1="43.8%" y1="0%" x2="100%" y2="100%"><stop offset="14.444444444444446%" stop-color="#48b86a" stop-opacity="1"></stop><stop offset="85.55555555555554%" stop-color="#33a657" stop-opacity="1"></stop></linearGradient></defs><defs><linearGradient id="grad1_3" x1="43.8%" y1="0%" x2="100%" y2="100%"><stop offset="14.444444444444446%" stop-color="#48b86a" stop-opacity="1"></stop><stop offset="85.55555555555554%" stop-color="#5bca7f" stop-opacity="1"></stop></linearGradient></defs><defs><linearGradient id="grad1_4" x1="43.8%" y1="0%" x2="100%" y2="100%"><stop offset="14.444444444444446%" stop-color="#6edd93" stop-opacity="1"></stop><stop offset="85.55555555555554%" stop-color="#5bca7f" stop-opacity="1"></stop></linearGradient></defs><defs><linearGradient id="grad2_0" x1="0%" y1="0%" x2="56.3%" y2="100%"><stop offset="14.444444444444446%" stop-color="#1a9443" stop-opacity="1"></stop><stop offset="85.55555555555554%" stop-color="#1a9443" stop-opacity="1"></stop></linearGradient></defs><defs><linearGradient id="grad2_1" x1="0%" y1="0%" x2="56.3%" y2="100%"><stop offset="14.444444444444446%" stop-color="#33a657" stop-opacity="1"></stop><stop offset="85.55555555555554%" stop-color="#1a9443" stop-opacity="1"></stop></linearGradient></defs><defs><linearGradient id="grad2_2" x1="0%" y1="0%" x2="56.3%" y2="100%"><stop offset="14.444444444444446%" stop-color="#33a657" stop-opacity="1"></stop><stop offset="85.55555555555554%" stop-color="#48b86a" stop-opacity="1"></stop></linearGradient></defs><defs><linearGradient id="grad2_3" x1="0%" y1="0%" x2="56.3%" y2="100%"><stop offset="14.444444444444446%" stop-color="#5bca7f" stop-opacity="1"></stop><stop offset="85.55555555555554%" stop-color="#48b86a" stop-opacity="1"></stop></linearGradient></defs><defs><linearGradient id="grad2_4" x1="0%" y1="0%" x2="56.3%" y2="100%"><stop offset="14.444444444444446%" stop-color="#5bca7f" stop-opacity="1"></stop><stop offset="85.55555555555554%" stop-color="#6edd93" stop-opacity="1"></stop></linearGradient></defs><g transform="translate(960, 0)"><path d="M0 432C-36.6 392.1 -73.2 352.2 -107.8 331.9C-142.5 311.6 -175.1 310.9 -221.6 305C-268.1 299.1 -328.4 288 -349.5 253.9C-370.5 219.9 -352.3 162.9 -359.5 116.8C-366.7 70.7 -399.3 35.3 -432 0L0 0Z" fill="#65d489"></path><path d="M0 345.6C-29.3 313.7 -58.6 281.8 -86.3 265.5C-114 249.3 -140.1 248.7 -177.3 244C-214.5 239.3 -262.8 230.4 -279.6 203.1C-296.4 175.9 -281.8 130.4 -287.6 93.4C-293.4 56.5 -319.5 28.3 -345.6 0L0 0Z" fill="#51c174"></path><path d="M0 259.2C-22 235.3 -43.9 211.3 -64.7 199.2C-85.5 187 -105.1 186.5 -133 183C-160.9 179.5 -197.1 172.8 -209.7 152.4C-222.3 131.9 -211.4 97.8 -215.7 70.1C-220 42.4 -239.6 21.2 -259.2 0L0 0Z" fill="#3eaf60"></path><path d="M0 172.8C-14.6 156.8 -29.3 140.9 -43.1 132.8C-57 124.6 -70 124.4 -88.6 122C-107.2 119.6 -131.4 115.2 -139.8 101.6C-148.2 88 -140.9 65.2 -143.8 46.7C-146.7 28.3 -159.7 14.1 -172.8 0L0 0Z" fill="#289d4d"></path><path d="M0 86.4C-7.3 78.4 -14.6 70.4 -21.6 66.4C-28.5 62.3 -35 62.2 -44.3 61C-53.6 59.8 -65.7 57.6 -69.9 50.8C-74.1 44 -70.5 32.6 -71.9 23.4C-73.3 14.1 -79.9 7.1 -86.4 0L0 0Z" fill="#1a9443"></path></g><g transform="translate(0, 540)"><path d="M0 -432C45.5 -422.6 91.1 -413.2 127.3 -391.8C163.5 -370.5 190.4 -337.3 229.2 -315.5C268 -293.7 318.8 -283.4 349.5 -253.9C380.2 -224.5 390.9 -175.9 401.3 -130.4C411.8 -84.9 421.9 -42.5 432 0L0 0Z" fill="#65d489"></path><path d="M0 -345.6C36.4 -338.1 72.9 -330.5 101.9 -313.5C130.8 -296.4 152.3 -269.8 183.4 -252.4C214.4 -235 255 -226.7 279.6 -203.1C304.2 -179.6 312.7 -140.7 321.1 -104.3C329.4 -67.9 337.5 -34 345.6 0L0 0Z" fill="#51c174"></path><path d="M0 -259.2C27.3 -253.5 54.7 -247.9 76.4 -235.1C98.1 -222.3 114.3 -202.4 137.5 -189.3C160.8 -176.2 191.3 -170 209.7 -152.4C228.1 -134.7 234.6 -105.5 240.8 -78.2C247.1 -50.9 253.1 -25.5 259.2 0L0 0Z" fill="#3eaf60"></path><path d="M0 -172.8C18.2 -169 36.4 -165.3 50.9 -156.7C65.4 -148.2 76.2 -134.9 91.7 -126.2C107.2 -117.5 127.5 -113.4 139.8 -101.6C152.1 -89.8 156.4 -70.4 160.5 -52.2C164.7 -34 168.8 -17 172.8 0L0 0Z" fill="#289d4d"></path><path d="M0 -86.4C9.1 -84.5 18.2 -82.6 25.5 -78.4C32.7 -74.1 38.1 -67.5 45.8 -63.1C53.6 -58.7 63.8 -56.7 69.9 -50.8C76 -44.9 78.2 -35.2 80.3 -26.1C82.4 -17 84.4 -8.5 86.4 0L0 0Z" fill="#1a9443"></path></g></svg>